<svg xmlns="http://www.w3.org/2000/svg" xmlns:xlink="http://www.w3.org/1999/xlink" width="500" zoomAndPan="magnify" viewBox="0 0 375 187.499995" height="250" preserveAspectRatio="xMidYMid meet" version="1.0"><defs><g/><clipPath id="e5b7b56ca0"><path d="M 0.5 0 L 374.5 0 L 374.5 187 L 0.5 187 Z M 0.5 0 " clip-rule="nonzero"/></clipPath></defs><g clip-path="url(#e5b7b56ca0)"><path fill="#ffffff" d="M 0.5 0 L 374.5 0 L 374.5 187 L 0.5 187 Z M 0.5 0 " fill-opacity="1" fill-rule="nonzero"/><path fill="#ffffff" d="M 0.5 0 L 374.5 0 L 374.5 187 L 0.5 187 Z M 0.5 0 " fill-opacity="1" fill-rule="nonzero"/></g><g fill="#000000" fill-opacity="1"><g transform="translate(179.631913, 95.744674)"><g><path d="M 4.484375 -3.375 L 4.484375 -5.6875 L 5.15625 -5.6875 L 5.15625 0 L 4.484375 0 L 4.484375 -2.8125 L 1.53125 -2.8125 L 1.53125 0 L 0.859375 0 L 0.859375 -5.6875 L 1.53125 -5.6875 L 1.53125 -3.375 Z M 4.484375 -3.375 "/></g></g></g><g fill="#000000" fill-opacity="1"><g transform="translate(185.649032, 95.744674)"><g><path d="M 4.4375 -5.6875 L 4.4375 -5.125 L 2.65625 -5.125 L 2.65625 0 L 2 0 L 2 -5.125 L 0.203125 -5.125 L 0.203125 -5.6875 Z M 4.4375 -5.6875 "/></g></g></g><g fill="#000000" fill-opacity="1"><g transform="translate(190.296147, 95.744674)"><g><path d="M 0.953125 0 L 0.21875 0 L 2 -2.921875 L 0.3125 -5.6875 L 1.0625 -5.6875 L 2.484375 -3.375 L 2.578125 -3.375 L 4.03125 -5.6875 L 4.75 -5.6875 L 3.046875 -2.921875 L 4.828125 0 L 4.078125 0 L 2.5625 -2.46875 L 2.46875 -2.46875 Z M 0.953125 0 "/></g></g></g></svg>