<svg xmlns="http://www.w3.org/2000/svg" xmlns:xlink="http://www.w3.org/1999/xlink" width="700" zoomAndPan="magnify" viewBox="0 0 525 374.999991" height="500" preserveAspectRatio="xMidYMid meet" version="1.0"><defs><g/></defs><g fill="#ffffff" fill-opacity="1"><g transform="translate(0.0000063, 254.503244)"><g><path d="M 7.21875 -168.734375 L 87.859375 -168.734375 L 87.859375 -106.625 L 95.078125 -106.625 L 95.078125 -168.734375 L 175.71875 -168.734375 L 175.71875 -0.234375 L 95.078125 -0.234375 L 95.078125 -62.34375 L 87.859375 -62.34375 L 87.859375 -0.234375 L 7.21875 -0.234375 Z M 7.21875 -168.734375 "/></g></g></g><g fill="#ffffff" fill-opacity="1"><g transform="translate(183.179647, 254.503244)"><g><path d="M 123.96875 -84 L 123.96875 0.234375 L 39.71875 0.234375 L 39.71875 -84 L 4.8125 -84 L 4.8125 -168.484375 L 156.703125 -168.484375 L 156.703125 -84 Z M 123.96875 -84 "/></g></g></g><g fill="#ffffff" fill-opacity="1"><g transform="translate(344.936152, 254.503244)"><g><path d="M 0.484375 -168.734375 L 179.078125 -168.734375 L 131.90625 -84.484375 L 179.078125 -0.234375 L 0.484375 -0.234375 L 47.65625 -84.484375 Z M 0.484375 -168.734375 "/></g></g></g></svg>