<svg xmlns="http://www.w3.org/2000/svg" xmlns:xlink="http://www.w3.org/1999/xlink" width="500" zoomAndPan="magnify" viewBox="0 0 375 187.499995" height="250" preserveAspectRatio="xMidYMid meet" version="1.0"><defs><g/></defs><g fill="#ffffff" fill-opacity="1"><g transform="translate(0.498675, 155.604799)"><g><path d="M 5.078125 -118.578125 L 61.734375 -118.578125 L 61.734375 -74.9375 L 66.8125 -74.9375 L 66.8125 -118.578125 L 123.484375 -118.578125 L 123.484375 -0.171875 L 66.8125 -0.171875 L 66.8125 -43.8125 L 61.734375 -43.8125 L 61.734375 -0.171875 L 5.078125 -0.171875 Z M 5.078125 -118.578125 "/></g></g></g><g fill="#ffffff" fill-opacity="1"><g transform="translate(129.227104, 155.604799)"><g><path d="M 87.109375 -59.03125 L 87.109375 0.171875 L 27.90625 0.171875 L 27.90625 -59.03125 L 3.390625 -59.03125 L 3.390625 -118.40625 L 110.125 -118.40625 L 110.125 -59.03125 Z M 87.109375 -59.03125 "/></g></g></g><g fill="#ffffff" fill-opacity="1"><g transform="translate(242.900576, 155.604799)"><g><path d="M 0.34375 -118.578125 L 125.859375 -118.578125 L 92.703125 -59.375 L 125.859375 -0.171875 L 0.34375 -0.171875 L 33.5 -59.375 Z M 0.34375 -118.578125 "/></g></g></g></svg>