<svg xmlns="http://www.w3.org/2000/svg" xmlns:xlink="http://www.w3.org/1999/xlink" width="500" zoomAndPan="magnify" viewBox="0 0 375 374.999991" height="500" preserveAspectRatio="xMidYMid meet" version="1.0"><defs><g/><clipPath id="9f856b0b17"><path d="M 9.066406 8.113281 L 365.933594 8.113281 L 365.933594 364.976562 L 9.066406 364.976562 Z M 9.066406 8.113281 " clip-rule="nonzero"/></clipPath><clipPath id="4c51a4a6f5"><path d="M 187.5 8.113281 C 88.953125 8.113281 9.066406 88 9.066406 186.546875 C 9.066406 285.089844 88.953125 364.976562 187.5 364.976562 C 286.046875 364.976562 365.933594 285.089844 365.933594 186.546875 C 365.933594 88 286.046875 8.113281 187.5 8.113281 Z M 187.5 8.113281 " clip-rule="nonzero"/></clipPath></defs><g clip-path="url(#9f856b0b17)"><g clip-path="url(#4c51a4a6f5)"><path fill="#335484" d="M 9.066406 8.113281 L 365.933594 8.113281 L 365.933594 364.976562 L 9.066406 364.976562 Z M 9.066406 8.113281 " fill-opacity="1" fill-rule="nonzero"/></g></g><g fill="#ffffff" fill-opacity="1"><g transform="translate(20.830508, 239.11234)"><g><path d="M 4.578125 -106.875 L 55.640625 -106.875 L 55.640625 -67.53125 L 60.21875 -67.53125 L 60.21875 -106.875 L 111.296875 -106.875 L 111.296875 -0.15625 L 60.21875 -0.15625 L 60.21875 -39.484375 L 55.640625 -39.484375 L 55.640625 -0.15625 L 4.578125 -0.15625 Z M 4.578125 -106.875 "/></g></g></g><g fill="#ffffff" fill-opacity="1"><g transform="translate(136.844444, 239.11234)"><g><path d="M 78.515625 -53.203125 L 78.515625 0.15625 L 25.15625 0.15625 L 25.15625 -53.203125 L 3.046875 -53.203125 L 3.046875 -106.71875 L 99.25 -106.71875 L 99.25 -53.203125 Z M 78.515625 -53.203125 "/></g></g></g><g fill="#ffffff" fill-opacity="1"><g transform="translate(239.290375, 239.11234)"><g><path d="M 0.3125 -106.875 L 113.421875 -106.875 L 83.546875 -53.515625 L 113.421875 -0.15625 L 0.3125 -0.15625 L 30.1875 -53.515625 Z M 0.3125 -106.875 "/></g></g></g></svg>