<svg xmlns="http://www.w3.org/2000/svg" xmlns:xlink="http://www.w3.org/1999/xlink" width="300" zoomAndPan="magnify" viewBox="0 0 224.87999 225" height="300" preserveAspectRatio="xMidYMid meet" version="1.0"><defs><g/></defs><g fill="#ffffff" fill-opacity="1"><g transform="translate(3.585016, 143.901434)"><g><path d="M 2.96875 -69.484375 L 36.1875 -69.484375 L 36.1875 -43.90625 L 39.15625 -43.90625 L 39.15625 -69.484375 L 72.359375 -69.484375 L 72.359375 -0.09375 L 39.15625 -0.09375 L 39.15625 -25.671875 L 36.1875 -25.671875 L 36.1875 -0.09375 L 2.96875 -0.09375 Z M 2.96875 -69.484375 "/></g></g></g><g fill="#ffffff" fill-opacity="1"><g transform="translate(79.023888, 143.901434)"><g><path d="M 51.046875 -34.59375 L 51.046875 0.09375 L 16.359375 0.09375 L 16.359375 -34.59375 L 1.984375 -34.59375 L 1.984375 -69.390625 L 64.53125 -69.390625 L 64.53125 -34.59375 Z M 51.046875 -34.59375 "/></g></g></g><g fill="#ffffff" fill-opacity="1"><g transform="translate(145.64007, 143.901434)"><g><path d="M 0.203125 -69.484375 L 73.75 -69.484375 L 54.328125 -34.796875 L 73.75 -0.09375 L 0.203125 -0.09375 L 19.625 -34.796875 Z M 0.203125 -69.484375 "/></g></g></g></svg>