<svg xmlns="http://www.w3.org/2000/svg" xmlns:xlink="http://www.w3.org/1999/xlink" width="500" zoomAndPan="magnify" viewBox="0 0 375 374.999991" height="500" preserveAspectRatio="xMidYMid meet" version="1.0"><defs><g/></defs><rect x="-37.5" width="450" fill="#ffffff" y="-37.499999" height="449.999989" fill-opacity="1"/><rect x="-37.5" width="450" fill="#ffffff" y="-37.499999" height="449.999989" fill-opacity="1"/><g fill="#ffffff" fill-opacity="1"><g transform="translate(3.960942, 229.032268)"><g><path d="M 5.046875 -117.984375 L 61.4375 -117.984375 L 61.4375 -74.5625 L 66.484375 -74.5625 L 66.484375 -117.984375 L 122.875 -117.984375 L 122.875 -0.171875 L 66.484375 -0.171875 L 66.484375 -43.59375 L 61.4375 -43.59375 L 61.4375 -0.171875 L 5.046875 -0.171875 Z M 5.046875 -117.984375 "/></g></g></g><g fill="#ffffff" fill-opacity="1"><g transform="translate(132.040796, 229.032268)"><g><path d="M 86.6875 -58.734375 L 86.6875 0.171875 L 27.765625 0.171875 L 27.765625 -58.734375 L 3.359375 -58.734375 L 3.359375 -117.8125 L 109.578125 -117.8125 L 109.578125 -58.734375 Z M 86.6875 -58.734375 "/></g></g></g><g fill="#ffffff" fill-opacity="1"><g transform="translate(245.141546, 229.032268)"><g><path d="M 0.34375 -117.984375 L 125.21875 -117.984375 L 92.234375 -59.078125 L 125.21875 -0.171875 L 0.34375 -0.171875 L 33.328125 -59.078125 Z M 0.34375 -117.984375 "/></g></g></g></svg>